<?xml version="1.0" encoding="UTF-8" standalone="no"?>
<!-- Generator: Adobe Illustrator 24.2.3, SVG Export Plug-In . SVG Version: 6.00 Build 0)  -->

<svg
   version="1.1"
   id="Layer_1"
   x="0px"
   y="0px"
   viewBox="0 0 572 82.5"
   xml:space="preserve"
   sodipodi:docname="make87_ME_1d_cv_cropped.svg"
   width="572"
   height="82.5"
   inkscape:version="1.4 (e7c3feb1, 2024-10-09)"
   xmlns:inkscape="http://www.inkscape.org/namespaces/inkscape"
   xmlns:sodipodi="http://sodipodi.sourceforge.net/DTD/sodipodi-0.dtd"
   xmlns="http://www.w3.org/2000/svg"
   xmlns:svg="http://www.w3.org/2000/svg"><defs
   id="defs6" /><sodipodi:namedview
   id="namedview6"
   pagecolor="#505050"
   bordercolor="#eeeeee"
   borderopacity="1"
   inkscape:showpageshadow="0"
   inkscape:pageopacity="0"
   inkscape:pagecheckerboard="0"
   inkscape:deskcolor="#505050"
   inkscape:zoom="0.81710117"
   inkscape:cx="331.04836"
   inkscape:cy="384.89726"
   inkscape:window-width="1512"
   inkscape:window-height="854"
   inkscape:window-x="0"
   inkscape:window-y="38"
   inkscape:window-maximized="0"
   inkscape:current-layer="Layer_1" />
<style
   type="text/css"
   id="style1">
	.st0{fill:#FFFFFF;}
</style>
<g
   id="XMLID_40_"
   transform="scale(0.79444444,0.11458333)">
	<rect
   id="XMLID_42_"
   width="720"
   height="720"
   x="0"
   y="0" />
</g>
<g
   id="g6"
   transform="translate(-73.765,-305.76)">
	<path
   id="XMLID_9_"
   class="st0"
   d="m 230.95,345.78 c -8.23,-0.57 -16.56,-0.97 -24.91,-1.25 -2.12,-0.07 -3.88,-1.65 -4.2,-3.75 -2.62,-17.7 -17.87,-31.27 -36.3,-31.27 -18.43,0 -33.68,13.58 -36.3,31.28 -0.31,2.1 -2.07,3.68 -4.2,3.75 -8.34,0.28 -16.66,0.67 -24.87,1.24 -0.54,0.04 -0.54,0.82 0,0.86 8.21,0.57 16.53,0.96 24.87,1.24 2.12,0.07 3.89,1.65 4.2,3.75 2.62,17.7 17.87,31.28 36.3,31.28 18.42,0 33.68,-13.58 36.3,-31.27 0.31,-2.1 2.07,-3.68 4.2,-3.75 8.36,-0.28 16.69,-0.67 24.91,-1.25 0.53,-0.05 0.53,-0.83 0,-0.86 z m -65.41,-29.75 c 14.85,0 27.22,10.79 29.71,24.93 0.3,1.7 -1.04,3.25 -2.77,3.21 -9.04,-0.18 -18.05,-0.26 -26.94,-0.3 -8.88,0.04 -17.9,0.13 -26.94,0.31 -1.72,0.03 -3.06,-1.51 -2.77,-3.21 2.49,-14.15 14.86,-24.94 29.71,-24.94 z m 0,60.34 c -14.85,0 -27.23,-10.79 -29.71,-24.94 -0.3,-1.7 1.04,-3.25 2.77,-3.21 9.04,0.18 18.06,0.27 26.94,0.31 8.88,-0.04 17.9,-0.12 26.94,-0.3 1.73,-0.03 3.06,1.51 2.77,3.21 -2.48,14.15 -14.86,24.93 -29.71,24.93 z" />
	<path
   class="st0"
   d="m 320.93,352.68 c 1.53,-8.69 -2.51,-13.23 -9.81,-13.23 -7.41,0 -13.05,4.54 -14.58,13.23 l -5.33,30.22 h -13.83 l 5.33,-30.22 c 1.53,-8.69 -2.5,-13.23 -9.81,-13.23 -7.51,0 -13.15,4.54 -14.68,13.23 l -5.33,30.22 h -13.83 l 9.65,-54.71 h 13.82 l -1.17,6.62 c 4.26,-4.54 10.59,-7.41 17.4,-7.41 8.49,0 14.86,3.65 17.41,10.47 4.65,-6.22 12.61,-10.47 20.61,-10.47 13.13,0 20.95,8.29 18.29,23.41 l -5.66,32.1 h -13.83 z"
   id="path1" />
	<path
   class="st0"
   d="m 369.85,327.31 c 8.79,0 14.08,4.15 16.54,8.69 l 1.38,-7.8 h 13.92 l -9.65,54.71 h -13.92 l 1.41,-8 c -4.1,4.74 -11.05,8.89 -19.74,8.89 -13.83,0 -22.88,-11.36 -19.87,-28.44 3.01,-17.09 16,-28.05 29.93,-28.05 z m 1.41,12.15 c -7.41,0 -15.39,5.53 -17.22,15.9 -1.83,10.37 4.14,16.3 11.54,16.3 7.6,0 15.53,-5.73 17.36,-16.1 1.83,-10.37 -4.08,-16.1 -11.68,-16.1 z"
   id="path2" />
	<path
   class="st0"
   d="m 410.5,309.83 h 13.83 L 417,351.41 439.46,328.2 h 17.97 l -28.94,27.45 19.49,27.26 h -17.97 l -14.46,-23.31 -4.11,23.31 h -13.83 z"
   id="path3" />
	<path
   class="st0"
   d="m 469.63,383.8 c -15.9,0 -25.5,-11.06 -22.47,-28.24 3.05,-17.28 16.24,-28.25 32.43,-28.25 15.8,0 25.06,10.76 22.19,27.06 -0.31,1.78 -0.73,3.56 -1.33,5.33 h -40 c -0.74,8.1 3.99,12.64 10.91,12.64 5.92,0 9.71,-2.96 12.13,-6.62 h 14.91 c -4.75,10.08 -15.24,18.08 -28.77,18.08 z m -7.45,-33.38 h 25.97 c 1.07,-7.21 -3.85,-11.75 -10.96,-11.75 -6.62,0 -12.6,4.25 -15.01,11.75 z"
   id="path4" />
	<path
   class="st0"
   d="m 513.53,328.89 c 1.83,-10.37 11.31,-19.36 27.71,-19.36 16.39,0 22.69,9.09 20.88,19.36 -1.34,7.6 -6.45,13.04 -12.58,15.9 6.57,3.06 9.92,9.28 8.44,17.68 -2.42,13.73 -15.14,22.02 -29.95,22.02 -14.71,0 -24.51,-8.3 -22.09,-22.02 1.5,-8.49 7.04,-14.72 14.67,-17.68 -5.39,-3.06 -8.46,-8.1 -7.08,-15.9 z m 5.84,32.99 c -1.13,6.42 2.77,11.16 10.67,11.16 7.9,0 13.4,-4.84 14.51,-11.16 1.25,-7.11 -3.18,-11.06 -10.59,-11.06 -7.21,0 -13.3,3.75 -14.59,11.06 z m 28.97,-31.01 c 1.15,-6.52 -2.45,-10.17 -9.07,-10.17 -6.42,0 -11.39,3.56 -12.58,10.27 -1.04,5.93 2.82,9.78 9.04,9.78 6.32,-0.01 11.56,-3.96 12.61,-9.88 z"
   id="path5" />
	<path
   class="st0"
   d="m 620.22,311.11 -1.81,10.27 -37.12,61.53 h -14.02 l 37.04,-59.95 h -33.77 l 2.09,-11.85 z"
   id="path6" />
</g>
</svg>
