<?xml version="1.0" encoding="utf-8"?>
<!-- Generator: Adobe Illustrator 24.2.3, SVG Export Plug-In . SVG Version: 6.00 Build 0)  -->
<svg version="1.1" id="Layer_1" xmlns="http://www.w3.org/2000/svg" xmlns:xlink="http://www.w3.org/1999/xlink" x="0px" y="0px"
	 viewBox="0 0 720 720" style="enable-background:new 0 0 720 720;" xml:space="preserve">
<style type="text/css">
	.st0{fill:#FFFFFF;}
</style>
<g id="XMLID_40_">
	<rect id="XMLID_42_" width="720" height="720"/>
</g>
<g>
	<path id="XMLID_9_" class="st0" d="M567.1,358.64c-26.06-1.81-52.45-3.06-78.91-3.95c-6.73-0.22-12.31-5.21-13.29-11.87
		c-8.3-56.05-56.61-99.06-114.97-99.06c-58.37,0-106.68,43.02-114.97,99.08c-0.98,6.66-6.57,11.65-13.29,11.87
		c-26.42,0.88-52.78,2.12-78.78,3.92c-1.69,0.12-1.69,2.6,0,2.71c26.02,1.8,52.37,3.04,78.78,3.92c6.73,0.22,12.31,5.21,13.29,11.87
		c8.29,56.06,56.6,99.08,114.97,99.08c58.36,0,106.67-43.01,114.96-99.06c0.99-6.66,6.57-11.64,13.29-11.87
		c26.47-0.88,52.86-2.13,78.91-3.95C568.8,361.24,568.8,358.76,567.1,358.64z M359.94,264.44c47.04,0,86.22,34.16,94.1,78.98
		c0.95,5.38-3.3,10.28-8.76,10.17c-28.63-0.57-57.19-0.83-85.34-0.96c-28.14,0.14-56.7,0.41-85.34,0.98
		c-5.46,0.11-9.71-4.79-8.76-10.17C273.7,298.61,312.9,264.44,359.94,264.44z M359.94,455.56c-47.04,0-86.24-34.17-94.1-79
		c-0.94-5.38,3.3-10.28,8.76-10.17c28.63,0.58,57.19,0.84,85.34,0.98c28.13-0.13,56.7-0.39,85.34-0.96
		c5.46-0.11,9.7,4.79,8.76,10.17C446.16,421.4,406.97,455.56,359.94,455.56z"/>
</g>
</svg>
